<?xml version="1.0" standalone="no"?>
<!DOCTYPE svg PUBLIC "-//W3C//DTD SVG 20010904//EN"
 "http://www.w3.org/TR/2001/REC-SVG-20010904/DTD/svg10.dtd">
<svg version="1.0" xmlns="http://www.w3.org/2000/svg"
 width="614.000000pt" height="614.000000pt" viewBox="0 0 614.000000 614.000000"
 preserveAspectRatio="xMidYMid meet">
<metadata>
Created by potrace 1.14, written by Peter Selinger 2001-2017
</metadata>
<g transform="translate(0.000000,614.000000) scale(0.100000,-0.100000)"
fill="#000000" stroke="none">
<path d="M1153 5620 c-77 -18 -151 -80 -196 -164 -22 -40 -22 -49 -27 -561
l-5 -520 -462 1 -463 0 0 -1033 0 -1033 152 -1 c397 -2 654 -52 923 -180 68
-32 219 -121 235 -139 3 -3 27 -23 55 -45 113 -90 237 -236 319 -372 58 -98
124 -244 132 -293 l7 -45 14 33 c14 34 18 150 8 217 -5 37 -19 115 -31 175 -3
14 -10 43 -16 65 -5 22 -10 41 -9 42 0 2 -6 21 -14 43 -8 22 -12 40 -10 40 3
0 0 11 -5 24 -6 17 -5 28 4 35 14 12 108 38 169 46 23 3 49 8 57 10 27 7 173
18 270 19 86 2 133 -2 254 -20 91 -13 292 -91 381 -147 108 -68 150 -102 245
-197 79 -78 151 -174 190 -250 12 -25 26 -53 31 -62 11 -22 12 -48 1 -48 -4 0
-23 5 -42 10 -74 22 -255 55 -354 65 -33 3 -63 8 -68 11 -4 3 -8 2 -8 -3 0 -4
28 -16 63 -26 91 -27 308 -134 337 -166 3 -4 23 -19 45 -36 116 -86 222 -217
301 -370 28 -54 58 -104 67 -109 10 -7 38 -3 89 12 40 12 82 24 93 27 11 2 49
11 84 20 97 24 208 45 359 70 66 10 88 14 147 20 33 4 74 8 90 10 17 2 64 7
105 10 163 13 226 23 213 36 -14 14 -178 23 -433 23 -245 0 -323 -4 -456 -23
-67 -10 -103 -9 -123 3 -5 3 -21 32 -36 63 -37 77 -166 204 -267 263 -43 25
-78 48 -78 51 0 7 165 54 225 63 11 2 48 9 82 15 35 7 84 14 110 17 27 2 59 7
73 9 97 18 523 26 635 11 87 -11 322 -63 439 -97 381 -113 703 -267 966 -464
127 -95 127 -95 94 -39 -84 148 -207 310 -314 413 -108 105 -312 260 -407 309
-16 9 -21 21 -21 49 0 21 0 675 -1 1453 l-1 1416 -471 -1 c-463 0 -472 0 -478
20 -4 11 -6 234 -6 495 1 387 -1 484 -13 525 -24 85 -80 149 -162 188 l-45 22
-1505 2 c-828 0 -1519 -2 -1537 -7z m2855 -824 l-3 -421 -1328 0 c-866 0
-1331 3 -1335 10 -6 10 -10 788 -4 816 3 14 127 16 1338 16 l1334 0 -2 -421z
m-1144 -1033 c99 -46 130 -57 169 -55 26 1 56 6 66 12 60 32 112 -8 125 -93 4
-33 21 -39 67 -27 79 22 105 21 133 -1 14 -11 26 -27 26 -35 0 -7 7 -32 16
-54 14 -36 26 -45 106 -85 50 -25 100 -45 113 -45 12 0 117 47 231 104 115 58
233 114 263 126 174 68 429 76 489 16 22 -22 17 -67 -15 -124 -76 -138 -205
-235 -492 -372 -63 -30 -142 -69 -175 -86 l-61 -31 0 -74 c-1 -102 8 -123 63
-155 65 -37 82 -54 82 -78 0 -12 -10 -29 -22 -38 -13 -9 -43 -31 -68 -49 -32
-23 -40 -34 -29 -38 30 -12 109 -72 119 -91 8 -15 4 -24 -21 -47 -90 -83 -82
-67 -75 -151 4 -43 9 -100 12 -128 l6 -51 -64 -25 c-108 -44 -135 -49 -157
-30 -26 22 -67 101 -125 242 -63 149 -190 407 -220 445 l-23 29 -179 -73 c-99
-41 -197 -82 -219 -91 -22 -10 -74 -32 -115 -49 l-75 -31 -38 -97 c-74 -190
-108 -232 -194 -240 -61 -6 -78 8 -88 74 -9 64 -33 146 -48 166 -6 8 -30 18
-52 22 -46 6 -65 26 -65 68 0 57 -27 90 -120 152 -49 32 -92 66 -95 73 -9 25
5 50 41 73 33 20 43 21 146 15 61 -4 114 -8 117 -10 3 -2 46 -7 96 -11 49 -3
93 -9 97 -11 5 -3 21 4 37 15 16 12 32 21 35 21 9 0 329 192 389 233 31 22 57
45 57 51 0 31 -255 290 -460 466 -35 30 -78 71 -96 90 -31 32 -32 36 -17 52
19 22 149 88 171 88 9 0 70 -26 136 -57z"/>
<path d="M840 1182 c-82 -10 -50 -30 95 -61 358 -78 626 -166 866 -287 88 -44
314 -181 342 -207 21 -21 121 -93 145 -106 33 -18 37 -8 19 41 -49 126 -186
291 -316 378 -88 59 -230 124 -348 159 -106 31 -115 33 -263 56 -134 20 -459
37 -540 27z"/>
</g>
</svg>
